<svg width="574" height="135" viewBox="0 0 574 135" fill="none" xmlns="http://www.w3.org/2000/svg">
<g clip-path="url(#clip0_12_102)">
<path d="M76.4638 107.892C76.4638 108.778 76.3483 109.548 76.1559 110.279C75.9635 111.011 75.6172 111.627 75.1554 112.128C74.6936 112.628 74.1548 113.052 73.4621 113.321C72.7695 113.591 71.9998 113.745 71.0763 113.745C70.1527 113.745 69.3446 113.591 68.6904 113.321C68.0362 113.052 67.4589 112.628 66.9971 112.128C66.5354 111.627 66.2275 111.011 66.0351 110.279C65.8042 109.548 65.7272 108.778 65.7272 107.892C65.7272 107.006 65.9196 105.697 66.3045 104.85C66.6893 104.003 67.2665 103.31 68.0746 102.848C68.8828 102.386 69.8833 102.116 71.1147 102.116C72.3462 102.116 73.3467 102.347 74.1163 102.848C74.9245 103.31 75.5017 104.003 75.8865 104.889C76.2713 105.774 76.4638 106.775 76.4638 107.969V107.892ZM68.2286 107.892C68.2286 108.662 68.344 109.355 68.5364 109.933C68.7288 110.51 69.0367 110.934 69.46 111.242C69.8833 111.55 70.4221 111.704 71.0763 111.704C71.7304 111.704 72.3077 111.55 72.731 111.242C73.1543 110.934 73.4621 110.51 73.6546 109.933C73.847 109.355 73.9624 108.701 73.9624 107.892C73.9624 106.698 73.7315 105.774 73.3082 105.081C72.8849 104.388 72.1538 104.08 71.1147 104.08C70.0757 104.08 69.8833 104.234 69.46 104.542C69.0367 104.85 68.7288 105.274 68.5364 105.851C68.344 106.429 68.2286 107.083 68.2286 107.892Z" fill="white"/>
<path d="M88.0854 113.552H85.738V102.27H92.203V104.234H88.0854V107.16H91.8951V109.124H88.0854V113.591V113.552Z" fill="white"/>
<path d="M103.748 113.552H101.4V102.27H107.865V104.234H103.748V107.16H107.557V109.124H103.748V113.591V113.552Z" fill="white"/>
<path d="M121.257 113.552H116.1V112.205L117.486 111.589V104.272L116.1 103.656V102.309H121.257V103.656L119.872 104.272V111.589L121.257 112.205V113.552Z" fill="white"/>
<path d="M134.918 104.08C134.456 104.08 134.072 104.157 133.725 104.35C133.379 104.542 133.071 104.773 132.84 105.12C132.609 105.466 132.417 105.851 132.301 106.313C132.186 106.775 132.109 107.314 132.109 107.892C132.109 108.47 132.186 109.394 132.417 109.933C132.609 110.51 132.917 110.934 133.34 111.242C133.764 111.55 134.302 111.666 134.957 111.666C135.611 111.666 135.88 111.627 136.342 111.512C136.804 111.396 137.304 111.242 137.843 111.088V113.09C137.343 113.283 136.842 113.437 136.38 113.514C135.88 113.591 135.341 113.668 134.764 113.668C133.61 113.668 132.648 113.437 131.878 112.936C131.108 112.436 130.57 111.781 130.223 110.895C129.877 110.01 129.685 109.009 129.685 107.854C129.685 106.698 129.8 106.236 130.031 105.505C130.262 104.773 130.608 104.195 131.031 103.656C131.493 103.156 132.032 102.732 132.686 102.463C133.34 102.193 134.11 102.039 134.957 102.039C135.803 102.039 136.073 102.116 136.65 102.232C137.227 102.386 137.766 102.578 138.266 102.809L137.496 104.735C137.073 104.542 136.65 104.35 136.227 104.195C135.803 104.041 135.38 103.964 134.957 103.964L134.918 104.08Z" fill="white"/>
<path d="M151.389 113.552H146.232V112.205L147.617 111.589V104.272L146.232 103.656V102.309H151.389V103.656L150.003 104.272V111.589L151.389 112.205V113.552Z" fill="white"/>
<path d="M167.166 113.552L166.358 110.857H162.241L161.432 113.552H158.854L162.856 102.193H165.781L169.783 113.552H167.205H167.166ZM164.973 106.198C164.934 106.005 164.857 105.813 164.78 105.505C164.703 105.235 164.626 104.966 164.511 104.658C164.396 104.35 164.357 104.119 164.319 103.926C164.28 104.119 164.203 104.388 164.088 104.696C164.011 105.004 163.895 105.312 163.818 105.582C163.741 105.851 163.664 106.044 163.626 106.159L162.818 108.778H165.742L164.934 106.159L164.973 106.198Z" fill="white"/>
<path d="M178.134 113.552V102.27H180.52V111.589H185.099V113.552H178.134Z" fill="white"/>
<path d="M209.458 113.552H207.072V104.234H203.994V102.232H212.498V104.234H209.42V113.552H209.458Z" fill="white"/>
<path d="M227.699 113.552H221.195V102.27H227.699V104.234H223.581V106.737H227.391V108.701H223.581V111.627H227.699V113.591V113.552Z" fill="white"/>
<path d="M241.822 104.08C241.36 104.08 240.975 104.157 240.629 104.35C240.282 104.542 239.975 104.773 239.744 105.12C239.513 105.466 239.32 105.851 239.205 106.313C239.089 106.775 239.012 107.314 239.012 107.892C239.012 108.47 239.089 109.394 239.32 109.933C239.513 110.51 239.821 110.934 240.244 111.242C240.667 111.55 241.206 111.666 241.86 111.666C242.514 111.666 242.784 111.627 243.245 111.512C243.707 111.396 244.208 111.242 244.746 111.088V113.09C244.246 113.283 243.746 113.437 243.284 113.514C242.822 113.591 242.245 113.668 241.668 113.668C240.513 113.668 239.551 113.437 238.782 112.936C238.012 112.436 237.473 111.781 237.127 110.895C236.78 110.01 236.588 109.009 236.588 107.854C236.588 106.698 236.704 106.236 236.934 105.505C237.165 104.773 237.512 104.195 237.935 103.656C238.397 103.156 238.935 102.732 239.59 102.463C240.244 102.193 241.014 102.039 241.86 102.039C242.707 102.039 242.976 102.116 243.553 102.232C244.131 102.386 244.669 102.578 245.17 102.809L244.4 104.735C243.977 104.542 243.553 104.35 243.13 104.195C242.707 104.041 242.283 103.964 241.86 103.964L241.822 104.08Z" fill="white"/>
<path d="M263.295 113.552H260.909V108.662H256.445V113.552H254.059V102.27H256.445V106.698H260.909V102.27H263.295V113.552Z" fill="white"/>
<path d="M283.113 113.552H280.073L275.147 105.004H275.07C275.07 105.351 275.07 105.736 275.109 106.082C275.109 106.429 275.109 106.814 275.147 107.16C275.147 107.507 275.147 107.892 275.147 108.239V113.552H273.031V102.27H276.032L280.92 110.741H280.958C280.958 110.395 280.958 110.048 280.958 109.702C280.958 109.355 280.958 109.009 280.958 108.662C280.958 108.316 280.958 107.969 280.958 107.623V102.27H283.113V113.552Z" fill="white"/>
<path d="M303.162 107.892C303.162 108.778 303.047 109.548 302.854 110.279C302.662 111.011 302.316 111.627 301.892 112.128C301.469 112.628 300.892 113.052 300.199 113.321C299.506 113.591 298.737 113.745 297.813 113.745C296.89 113.745 296.081 113.591 295.427 113.321C294.735 113.052 294.196 112.628 293.734 112.128C293.272 111.627 292.964 111.011 292.772 110.279C292.541 109.548 292.464 108.778 292.464 107.892C292.464 107.006 292.657 105.697 293.041 104.85C293.426 104.003 294.003 103.31 294.812 102.848C295.62 102.386 296.62 102.116 297.852 102.116C299.083 102.116 300.084 102.347 300.853 102.848C301.623 103.31 302.239 104.003 302.623 104.889C303.008 105.774 303.201 106.775 303.201 107.969L303.162 107.892ZM294.927 107.892C294.927 108.662 295.042 109.355 295.235 109.933C295.427 110.51 295.735 110.934 296.158 111.242C296.582 111.55 297.12 111.704 297.775 111.704C298.429 111.704 299.006 111.55 299.429 111.242C299.853 110.934 300.161 110.51 300.353 109.933C300.545 109.355 300.661 108.701 300.661 107.892C300.661 106.698 300.43 105.774 300.007 105.081C299.545 104.388 298.852 104.08 297.813 104.08C296.774 104.08 296.582 104.234 296.158 104.542C295.735 104.85 295.427 105.274 295.235 105.851C295.042 106.429 294.927 107.083 294.927 107.892Z" fill="white"/>
<path d="M312.475 113.552V102.27H314.861V111.589H319.44V113.552H312.475Z" fill="white"/>
<path d="M338.296 107.892C338.296 108.778 338.181 109.548 337.989 110.279C337.796 111.011 337.45 111.627 337.026 112.128C336.603 112.628 336.026 113.052 335.333 113.321C334.641 113.591 333.871 113.745 332.947 113.745C332.024 113.745 331.216 113.591 330.561 113.321C329.869 113.052 329.33 112.628 328.868 112.128C328.406 111.627 328.099 111.011 327.906 110.279C327.675 109.548 327.598 108.778 327.598 107.892C327.598 107.006 327.791 105.697 328.176 104.85C328.56 104.003 329.138 103.31 329.946 102.848C330.754 102.386 331.754 102.116 332.986 102.116C334.217 102.116 335.218 102.347 335.987 102.848C336.757 103.31 337.373 104.003 337.758 104.889C338.142 105.774 338.335 106.775 338.335 107.969L338.296 107.892ZM330.061 107.892C330.061 108.662 330.177 109.355 330.369 109.933C330.561 110.51 330.869 110.934 331.293 111.242C331.716 111.55 332.255 111.704 332.909 111.704C333.563 111.704 334.14 111.55 334.564 111.242C334.987 110.934 335.295 110.51 335.487 109.933C335.68 109.355 335.795 108.701 335.795 107.892C335.795 106.698 335.564 105.774 335.141 105.081C334.679 104.388 333.986 104.08 332.947 104.08C331.908 104.08 331.716 104.234 331.293 104.542C330.869 104.85 330.561 105.274 330.369 105.851C330.177 106.429 330.061 107.083 330.061 107.892Z" fill="white"/>
<path d="M351.881 107.199H356.345V113.052C355.767 113.244 355.152 113.398 354.497 113.514C353.843 113.629 353.151 113.706 352.304 113.706C351.457 113.706 350.226 113.475 349.456 113.052C348.687 112.628 348.071 111.935 347.686 111.088C347.301 110.241 347.07 109.163 347.07 107.892C347.07 106.621 347.301 105.697 347.763 104.812C348.225 103.964 348.879 103.271 349.764 102.809C350.649 102.347 351.688 102.078 352.958 102.078C354.228 102.078 354.151 102.155 354.728 102.27C355.306 102.386 355.844 102.578 356.306 102.771L355.536 104.696C355.19 104.504 354.805 104.35 354.343 104.272C353.882 104.195 353.42 104.08 352.958 104.08C352.265 104.08 351.65 104.234 351.149 104.542C350.649 104.85 350.226 105.312 349.957 105.89C349.687 106.467 349.533 107.122 349.533 107.931C349.533 108.739 349.649 109.317 349.841 109.894C350.033 110.472 350.341 110.895 350.803 111.242C351.226 111.55 351.804 111.704 352.496 111.704C353.189 111.704 353.112 111.704 353.343 111.666C353.574 111.627 353.805 111.589 353.997 111.55V109.201H351.881V107.199Z" fill="white"/>
<path d="M369.505 106.891L371.853 102.232H374.431L370.698 109.124V113.514H368.313V109.201L364.58 102.232H367.158L369.505 106.891Z" fill="white"/>
<path d="M397.482 102.232C398.944 102.232 399.983 102.54 400.676 103.156C401.33 103.772 401.677 104.658 401.677 105.736C401.677 106.814 401.6 106.698 401.446 107.16C401.292 107.623 401.061 108.008 400.714 108.354C400.368 108.701 399.906 108.97 399.368 109.201C398.829 109.432 398.136 109.509 397.29 109.509H396.251V113.514H393.865V102.232H397.482ZM397.367 104.196H396.289V107.545H397.059C397.52 107.545 397.905 107.507 398.213 107.353C398.521 107.237 398.79 107.045 398.983 106.814C399.175 106.544 399.252 106.236 399.252 105.851C399.252 105.466 399.098 104.889 398.79 104.619C398.483 104.35 398.021 104.234 397.367 104.234V104.196Z" fill="white"/>
<path d="M416.916 113.552L416.107 110.857H411.99L411.182 113.552H408.603L412.567 102.193H415.492L419.494 113.552H416.916ZM414.684 106.198C414.645 106.005 414.568 105.813 414.491 105.505C414.414 105.235 414.337 104.966 414.222 104.658C414.106 104.35 414.068 104.119 414.029 103.926C413.991 104.119 413.914 104.388 413.798 104.696C413.721 105.004 413.606 105.312 413.529 105.582C413.452 105.851 413.375 106.044 413.337 106.159L412.529 108.778H415.453L414.645 106.159L414.684 106.198Z" fill="white"/>
<path d="M431.154 102.232C432.193 102.232 433.001 102.347 433.694 102.617C434.348 102.848 434.848 103.233 435.195 103.733C435.502 104.234 435.695 104.85 435.695 105.62C435.695 106.39 435.618 106.583 435.387 106.968C435.156 107.353 434.925 107.7 434.617 107.931C434.309 108.2 433.963 108.431 433.578 108.585L436.888 113.514H434.232L431.539 109.163H430.269V113.514H427.883V102.232H431.154ZM430.962 104.196H430.23V107.237H431C431.77 107.237 432.347 107.122 432.693 106.852C433.04 106.583 433.193 106.198 433.193 105.697C433.193 105.197 433.116 105.043 432.963 104.85C432.809 104.619 432.539 104.465 432.231 104.388C431.924 104.311 431.462 104.234 430.962 104.234V104.196Z" fill="white"/>
<path d="M449.587 113.552H447.201V104.234H444.122V102.232H452.665V104.234H449.587V113.552Z" fill="white"/>
<path d="M471.368 113.552H468.328L463.402 105.004H463.325C463.325 105.351 463.325 105.736 463.363 106.082C463.363 106.429 463.363 106.814 463.402 107.16C463.402 107.507 463.402 107.892 463.402 108.239V113.552H461.247V102.27H464.249L469.136 110.741H469.174C469.174 110.395 469.174 110.048 469.174 109.702C469.174 109.355 469.174 109.009 469.174 108.662C469.174 108.316 469.174 107.969 469.174 107.623V102.27H471.329V113.552H471.368Z" fill="white"/>
<path d="M487.684 113.552H481.181V102.27H487.684V104.234H483.567V106.737H487.376V108.701H483.567V111.627H487.684V113.591V113.552Z" fill="white"/>
<path d="M500.268 102.232C501.307 102.232 502.115 102.347 502.808 102.617C503.462 102.848 503.962 103.233 504.308 103.733C504.616 104.234 504.809 104.85 504.809 105.62C504.809 106.39 504.732 106.583 504.501 106.968C504.27 107.353 504.039 107.7 503.731 107.931C503.423 108.2 503.077 108.431 502.692 108.585L506.002 113.514H503.346L500.653 109.163H499.383V113.514H496.997V102.232H500.306H500.268ZM500.114 104.196H499.383V107.237H500.152C500.961 107.237 501.499 107.122 501.846 106.852C502.192 106.583 502.346 106.198 502.346 105.697C502.346 105.197 502.269 105.043 502.115 104.85C501.961 104.658 501.692 104.465 501.384 104.388C501.038 104.273 500.614 104.234 500.114 104.234V104.196Z" fill="white"/>
<path d="M70.499 134.846H67.4589L62.5332 126.298H62.4563C62.4563 126.644 62.4563 127.029 62.4947 127.376C62.4947 127.722 62.4947 128.107 62.5332 128.454C62.5332 128.8 62.5332 129.186 62.5332 129.532V134.846H60.4167V123.564H63.4183L68.3055 132.035H68.344C68.344 131.688 68.344 131.342 68.344 130.995C68.344 130.649 68.344 130.302 68.344 129.956C68.344 129.609 68.344 129.263 68.344 128.916V123.564H70.499V134.846Z" fill="white"/>
<path d="M86.777 134.846H80.2735V123.564H86.777V125.527H82.6594V128.03H86.4691V129.994H82.6594V132.921H86.777V134.884V134.846Z" fill="white"/>
<path d="M106.326 129.185C106.326 130.071 106.21 130.841 106.018 131.573C105.826 132.304 105.479 132.921 105.018 133.421C104.556 133.922 104.017 134.345 103.324 134.615C102.632 134.884 101.862 135.038 100.938 135.038C100.015 135.038 99.2067 134.884 98.5525 134.615C97.8598 134.345 97.3211 133.922 96.8593 133.421C96.3975 132.921 96.0897 132.304 95.8588 131.573C95.6279 130.841 95.5509 130.071 95.5509 129.185C95.5509 128.3 95.7433 126.991 96.1282 126.144C96.513 125.296 97.0902 124.603 97.8983 124.141C98.7065 123.679 99.707 123.41 100.938 123.41C102.17 123.41 103.17 123.641 103.979 124.141C104.787 124.603 105.364 125.296 105.749 126.182C106.134 127.068 106.326 128.069 106.326 129.262V129.185ZM98.0907 129.185C98.0907 129.956 98.2062 130.649 98.3986 131.226C98.591 131.804 98.8989 132.227 99.3222 132.535C99.7455 132.843 100.284 132.998 100.938 132.998C101.593 132.998 102.17 132.843 102.593 132.535C103.016 132.227 103.324 131.804 103.517 131.226C103.709 130.649 103.825 129.994 103.825 129.185C103.825 127.992 103.594 127.068 103.17 126.375C102.747 125.681 102.016 125.373 100.977 125.373C99.9379 125.373 99.7455 125.527 99.3222 125.836C98.8989 126.144 98.591 126.567 98.3986 127.145C98.2062 127.722 98.0907 128.377 98.0907 129.185Z" fill="white"/>
<path d="M120.41 134.846L117.678 125.99H117.601C117.601 126.182 117.601 126.529 117.64 126.952C117.64 127.376 117.678 127.838 117.717 128.3C117.717 128.762 117.717 129.224 117.717 129.609V134.846H115.562V123.564H118.833L121.488 132.189H121.526L124.374 123.564H127.645V134.846H125.413V129.494C125.413 129.147 125.413 128.723 125.413 128.261C125.413 127.799 125.413 127.337 125.452 126.952C125.49 126.567 125.452 126.221 125.49 126.028H125.413L122.488 134.884H120.295L120.41 134.846Z" fill="white"/>
<path d="M153.351 134.846L150.619 125.99H150.542C150.542 126.182 150.542 126.529 150.58 126.952C150.58 127.376 150.619 127.838 150.657 128.3C150.657 128.762 150.657 129.224 150.657 129.609V134.846H148.541V123.564H151.812L154.467 132.189H154.506L157.353 123.564H160.624V134.846H158.392V129.494C158.392 129.147 158.392 128.723 158.392 128.261C158.392 127.799 158.392 127.337 158.431 126.952C158.469 126.567 158.431 126.221 158.469 126.028H158.392L155.468 134.884H153.274L153.351 134.846Z" fill="white"/>
<path d="M173.785 135C172.939 135 172.207 134.846 171.592 134.538C170.976 134.23 170.514 133.729 170.206 133.075C169.898 132.42 169.745 131.573 169.745 130.572C169.745 129.571 169.937 128.646 170.283 127.992C170.63 127.337 171.13 126.837 171.784 126.529C172.438 126.221 173.169 126.067 173.978 126.067C174.786 126.067 175.094 126.105 175.517 126.259C175.94 126.375 176.325 126.529 176.671 126.683L175.979 128.492C175.594 128.338 175.248 128.223 174.94 128.107C174.632 128.03 174.285 127.953 173.978 127.953C173.67 127.953 173.208 128.03 172.939 128.261C172.669 128.492 172.477 128.762 172.323 129.147C172.169 129.532 172.13 129.994 172.13 130.61C172.13 131.226 172.207 131.65 172.323 132.035C172.438 132.42 172.669 132.69 172.939 132.882C173.208 133.075 173.554 133.152 173.939 133.152C174.324 133.152 174.863 133.075 175.247 132.959C175.632 132.844 175.979 132.651 176.363 132.42V134.422C176.017 134.653 175.632 134.807 175.247 134.923C174.863 135.038 174.362 135.077 173.747 135.077L173.785 135Z" fill="white"/>
<path d="M185.522 134.846V123.564H187.908V132.882H192.488V134.846H185.522Z" fill="white"/>
<path d="M208.342 134.846L207.534 132.15H203.416L202.608 134.846H200.03L204.032 123.487H206.957L210.959 134.846H208.381H208.342ZM206.11 127.53C206.072 127.337 205.995 127.145 205.918 126.837C205.841 126.567 205.764 126.298 205.648 125.99C205.533 125.682 205.494 125.45 205.456 125.258C205.418 125.45 205.341 125.72 205.225 126.028C205.148 126.336 205.033 126.644 204.956 126.914C204.879 127.183 204.802 127.376 204.763 127.491L203.955 130.11H206.88L206.072 127.491L206.11 127.53Z" fill="white"/>
<path d="M222.581 123.564C223.62 123.564 224.466 123.679 225.12 123.949C225.775 124.18 226.275 124.565 226.621 125.065C226.968 125.566 227.121 126.182 227.121 126.952C227.121 127.722 227.045 127.915 226.814 128.3C226.583 128.685 226.352 129.031 226.044 129.263C225.736 129.532 225.39 129.763 225.005 129.917L228.314 134.846H225.659L222.965 130.495H221.695V134.846H219.31V123.564H222.619H222.581ZM222.427 125.527H221.695V128.569H222.465C223.235 128.569 223.812 128.454 224.158 128.184C224.505 127.915 224.659 127.53 224.659 127.029C224.659 126.529 224.582 126.375 224.428 126.182C224.274 125.951 224.004 125.797 223.697 125.72C223.389 125.643 222.927 125.566 222.427 125.566V125.527Z" fill="white"/>
<path d="M243.207 134.846H236.704V123.564H243.207V125.527H239.089V128.03H242.899V129.994H239.089V132.921H243.207V134.884V134.846Z" fill="white"/>
<path d="M262.525 134.846H259.485L254.559 126.298H254.482C254.482 126.644 254.482 127.029 254.521 127.376C254.521 127.722 254.521 128.107 254.559 128.454C254.559 128.8 254.559 129.186 254.559 129.532V134.846H252.443V123.564H255.444L260.332 132.035H260.37C260.37 131.688 260.37 131.342 260.37 130.995C260.37 130.649 260.37 130.302 260.37 129.956C260.37 129.609 260.37 129.263 260.37 128.916V123.564H262.525V134.846Z" fill="white"/>
<path d="M285.73 134.846H283.382V123.564H289.847V125.527H285.73V128.454H289.54V130.418H285.73V134.884V134.846Z" fill="white"/>
<path d="M309.281 129.185C309.281 130.071 309.165 130.841 308.973 131.573C308.781 132.304 308.434 132.921 308.011 133.421C307.588 133.922 307.01 134.345 306.318 134.615C305.625 134.884 304.855 135.038 303.932 135.038C303.008 135.038 302.2 134.884 301.546 134.615C300.853 134.345 300.315 133.922 299.853 133.421C299.391 132.921 299.083 132.304 298.891 131.573C298.66 130.841 298.583 130.071 298.583 129.185C298.583 128.3 298.775 126.991 299.16 126.144C299.545 125.296 300.122 124.603 300.93 124.141C301.738 123.679 302.739 123.41 303.97 123.41C305.202 123.41 306.202 123.641 306.972 124.141C307.742 124.603 308.357 125.296 308.742 126.182C309.127 127.068 309.319 128.069 309.319 129.262L309.281 129.185ZM301.046 129.185C301.046 129.956 301.161 130.649 301.354 131.226C301.546 131.804 301.854 132.227 302.277 132.535C302.7 132.843 303.239 132.998 303.893 132.998C304.548 132.998 305.125 132.843 305.548 132.535C305.971 132.227 306.279 131.804 306.472 131.226C306.664 130.649 306.78 129.994 306.78 129.185C306.78 127.992 306.549 127.068 306.125 126.375C305.664 125.681 304.971 125.373 303.932 125.373C302.893 125.373 302.7 125.527 302.277 125.836C301.854 126.144 301.546 126.567 301.354 127.145C301.161 127.722 301.046 128.377 301.046 129.185Z" fill="white"/>
<path d="M321.865 123.564C322.904 123.564 323.712 123.679 324.404 123.949C325.059 124.18 325.559 124.565 325.905 125.065C326.213 125.566 326.405 126.182 326.405 126.952C326.405 127.722 326.328 127.915 326.098 128.3C325.867 128.685 325.636 129.031 325.328 129.263C325.02 129.532 324.674 129.763 324.289 129.917L327.598 134.846H324.943L322.249 130.495H320.979V134.846H318.594V123.564H321.903H321.865ZM321.672 125.527H320.941V128.569H321.711C322.48 128.569 323.057 128.454 323.404 128.184C323.75 127.915 323.904 127.53 323.904 127.029C323.904 126.529 323.827 126.375 323.673 126.182C323.519 125.951 323.25 125.797 322.942 125.72C322.634 125.643 322.172 125.566 321.672 125.566V125.527Z" fill="white"/>
<path d="M340.721 134.846L337.989 125.99H337.912C337.912 126.182 337.912 126.529 337.95 126.952C337.95 127.376 337.989 127.838 338.027 128.3C338.027 128.762 338.027 129.224 338.027 129.609V134.846H335.911V123.564H339.182L341.837 132.189H341.875L344.684 123.564H347.955V134.846H345.723V129.494C345.723 129.147 345.723 128.723 345.723 128.261C345.723 127.799 345.723 127.337 345.762 126.952C345.8 126.567 345.762 126.221 345.762 126.028H345.685L342.76 134.884H340.567L340.721 134.846Z" fill="white"/>
<path d="M367.004 130.841C367.004 131.611 366.812 132.343 366.504 132.959C366.196 133.575 365.657 134.076 364.965 134.461C364.272 134.846 363.387 135 362.348 135C360.847 135 359.731 134.615 358.923 133.845C358.153 133.075 357.768 132.073 357.768 130.803V123.525H360.154V130.456C360.154 131.38 360.347 132.035 360.732 132.42C361.116 132.805 361.694 132.998 362.425 132.998C363.156 132.998 363.387 132.921 363.695 132.728C364.002 132.535 364.272 132.266 364.426 131.881C364.58 131.496 364.657 131.034 364.657 130.456V123.564H367.043V130.88L367.004 130.841Z" fill="white"/>
<path d="M376.74 134.846V123.564H379.126V132.882H383.705V134.846H376.74Z" fill="white"/>
<path d="M399.56 134.846L398.752 132.15H394.634L393.826 134.846H391.248L395.212 123.487H398.136L402.138 134.846H399.56ZM397.328 127.53C397.29 127.337 397.213 127.145 397.136 126.837C397.059 126.567 396.982 126.298 396.866 125.99C396.751 125.682 396.712 125.45 396.674 125.258C396.635 125.45 396.558 125.72 396.443 126.028C396.366 126.336 396.251 126.644 396.174 126.914C396.097 127.183 396.02 127.376 395.981 127.491L395.173 130.11H398.098L397.29 127.491L397.328 127.53Z" fill="white"/>
<path d="M428.075 134.846H421.572V123.564H428.075V125.527H423.958V128.03H427.767V129.994H423.958V132.921H428.075V134.884V134.846Z" fill="white"/>
<path d="M452.819 134.846H450.433V125.527H447.355V123.525H455.898V125.527H452.819V134.846Z" fill="white"/>
<path d="M471.06 134.846H464.556V123.564H471.06V125.527H466.942V128.03H470.752V129.994H466.942V132.921H471.06V134.884V134.846Z" fill="white"/>
<path d="M487.299 134.846L486.491 132.15H482.374L481.566 134.846H478.987L482.989 123.487H485.914L489.916 134.846H487.338H487.299ZM485.067 127.53C485.029 127.337 484.952 127.145 484.875 126.837C484.798 126.567 484.721 126.298 484.606 125.99C484.529 125.72 484.452 125.45 484.413 125.258C484.375 125.45 484.298 125.72 484.182 126.028C484.105 126.336 484.028 126.644 483.913 126.914C483.836 127.183 483.759 127.376 483.721 127.491L482.912 130.11H485.837L485.029 127.491L485.067 127.53Z" fill="white"/>
<path d="M503.039 134.846L500.306 125.99H500.229C500.229 126.182 500.229 126.529 500.268 126.952C500.268 127.376 500.306 127.838 500.345 128.3C500.345 128.762 500.345 129.224 500.345 129.609V134.846H498.19V123.564H501.461L504.116 132.189H504.155L507.002 123.564H510.273V134.846H508.041V129.494C508.041 129.147 508.041 128.723 508.041 128.261C508.041 127.799 508.041 127.337 508.08 126.952C508.118 126.567 508.08 126.221 508.08 126.028H508.003L505.078 134.884H502.885L503.039 134.846Z" fill="white"/>
<path d="M11.1214 41.9324C11.0444 41.9324 10.9289 41.9324 10.852 41.9324C6.50349 42.1634 1.69322 43.8962 0.346344 41.1623C0.962059 43.0106 2.46286 47.6697 3.77126 51.8668C5.04117 55.9484 5.96474 60.0299 7.15769 60.9156C10.8905 63.6495 18.3945 61.1081 22.8199 64.3426C27.0145 67.3845 26.0524 77.7809 29.9391 78.243C33.9028 78.7051 33.518 72.8523 34.8264 68.2701C35.9423 64.3426 37.5201 59.5294 41.3683 53.8691C40.0215 52.0208 37.9049 49.7875 34.7494 47.4772C32.402 45.7829 29.6313 44.5508 26.7836 43.7036C20.2416 41.8169 15.2005 41.7784 11.1598 41.9324H11.1214Z" fill="#126491"/>
<path d="M34.7876 68.1929C34.7876 68.27 34.7491 68.3855 34.7106 68.4625C33.5946 72.6596 33.7486 77.7808 30.7469 78.2429C32.7095 78.2429 37.5968 78.2429 41.9453 78.3199C46.2168 78.3969 50.3729 78.7819 51.6043 77.8963C55.3371 75.1624 55.2601 67.2688 59.6855 64.0344C63.8801 60.9924 73.5006 65.1125 75.1169 61.57C76.8101 57.912 71.1147 56.4873 67.1126 53.8304C63.7262 51.5586 59.6471 48.5552 55.414 43.1259C53.259 43.8575 50.4498 45.1667 47.2943 47.4385C44.9469 49.1328 42.9458 51.4046 41.2526 53.8689C37.4428 59.5292 35.8651 64.3039 34.7491 68.1929H34.7876Z" fill="#F5E6D1"/>
<path d="M67.0741 53.7919C67.1511 53.8304 67.228 53.9074 67.305 53.946C70.9223 56.3333 75.8865 57.758 75.3478 60.7614C75.9635 58.9132 77.4643 54.2155 78.8881 50.0954C80.2735 46.0523 81.9282 42.2018 81.4664 40.7771C80.0426 36.3875 72.5001 34.0001 70.8069 28.8019C69.1906 23.8732 76.0789 16.0181 73.2313 13.3612C70.2681 10.6274 67.1511 15.6331 63.4183 18.5595C60.2243 21.0623 56.1067 24.0272 49.6417 26.3761C49.6417 28.6479 50.0265 31.7283 51.2579 35.4248C52.143 38.1587 53.6823 40.7771 55.491 43.1644C59.6855 48.5167 63.7262 51.5201 67.0741 53.7919Z" fill="#BFDDC1"/>
<path d="M28.7847 11.2821C28.7847 11.2051 28.7077 11.0896 28.6692 11.0126C27.1299 6.93098 23.9744 2.88791 26.1294 0.770111C24.5516 1.92527 20.588 4.81318 17.0091 7.31603C13.5073 9.78038 9.92841 11.8982 9.46663 13.3229C8.04279 17.7125 12.7376 24.0659 11.0444 29.3026C9.46663 34.2698 -0.731146 36.5416 0.038497 40.3922C0.80814 44.3197 6.27261 42.1249 11.0444 41.9709C15.1235 41.8169 20.1647 41.8554 26.7836 43.7422C28.092 41.8939 29.5928 39.1985 30.7857 35.4635C31.6708 32.7296 31.9787 29.6877 31.9017 26.7228C31.6708 19.9073 30.17 15.1326 28.7462 11.3206L28.7847 11.2821Z" fill="#F3CDB2"/>
<path d="M63.3413 18.6365C63.4183 18.5595 63.4953 18.521 63.5722 18.444C66.9587 15.7101 69.8063 11.436 72.5001 12.8607C70.9223 11.7055 66.9587 8.8176 63.4568 6.19923C60.0319 3.61937 56.9148 0.88548 55.414 0.88548C50.7962 0.88548 46.2168 7.31589 40.7138 7.31589C35.2109 7.31589 30.2082 -1.65588 26.8218 0.269393C23.3199 2.23317 27.0911 6.7383 28.7459 11.2434C30.1697 15.094 31.6705 19.9072 31.9014 26.7611C34.0949 27.4542 37.0965 28.0318 41.0217 28.0318C44.9469 28.0318 46.871 27.3772 49.6802 26.4146C56.0682 24.1042 60.1858 21.1778 63.3798 18.6365H63.3413Z" fill="#17162B"/>
<path d="M31.9017 26.3377C31.9017 26.4532 31.9017 26.5687 31.9017 26.7227C31.9017 27.0308 31.9017 27.3773 31.9017 27.7239C30.7088 28.263 29.9006 29.4566 29.9006 30.8428C29.9006 31.9595 30.4394 32.9221 31.286 33.5767C31.209 34.0003 31.0551 34.4623 30.9397 34.8859C29.5543 34.0773 28.6307 32.5756 28.5923 30.8813C28.5923 28.802 29.9391 26.9923 31.8248 26.4147L31.9017 26.3377ZM25.9755 30.8428C25.9755 31.0739 25.9755 31.3049 25.9755 31.5359C26.0524 31.5359 26.1294 31.6129 26.2064 31.6514C26.2064 31.6514 26.2448 31.6514 26.2833 31.6514C26.4373 31.7284 26.5912 31.8055 26.7451 31.8825C26.8221 31.921 26.899 31.9595 26.976 31.998C27.0145 31.998 27.0914 32.075 27.1299 32.1135C27.2069 32.152 27.2839 32.229 27.3993 32.2675C27.2839 31.8055 27.2069 31.3049 27.2069 30.8043C27.2069 27.9549 29.1695 25.5291 31.7863 24.8745C31.7863 24.4509 31.7093 24.0274 31.6708 23.6038C28.3614 24.3354 25.8985 27.3003 25.937 30.8428H25.9755ZM23.2817 30.5348C23.705 30.6503 24.1283 30.7658 24.5516 30.9198V30.8428C24.5516 26.5687 27.5532 23.0262 31.5554 22.1791C31.5169 21.7555 31.4399 21.332 31.363 20.9469C26.8221 21.8326 23.3587 25.7986 23.2817 30.5733V30.5348ZM20.588 30.1497C20.7419 30.1497 20.8958 30.1497 21.0882 30.1497C21.3576 30.1497 21.5885 30.1882 21.8579 30.2267C22.0888 24.8745 26.0139 20.4849 31.1321 19.4837C31.0551 19.0602 30.9781 18.6366 30.8627 18.2516C25.2058 19.3682 20.8573 24.2199 20.588 30.1497ZM20.2801 5.92982C23.2817 6.04533 25.9755 7.35452 27.9381 9.3568C27.5148 8.43267 27.053 7.54705 26.6681 6.69993C24.9364 5.58327 22.8969 4.85167 20.7419 4.69764C20.6264 4.77466 20.511 4.85167 20.3956 4.92868C20.3956 4.96718 20.3956 5.04419 20.3956 5.0827C20.3956 5.35224 20.3571 5.62177 20.3186 5.89131L20.2801 5.92982ZM19.1256 31.5744C19.0102 31.5744 18.8563 31.5744 18.7408 31.5744C18.433 31.5744 18.1636 31.5359 17.8557 31.4974C17.6248 36.6571 14.0075 40.9312 9.15876 42.1249C9.77447 42.0479 10.3902 42.0094 11.0059 41.9709C11.6216 41.9709 12.2373 41.9709 12.8915 41.9324C16.4319 39.8146 18.8947 36.0025 19.0872 31.6129L19.1256 31.5744ZM24.3977 3.96604V3.88903C24.3977 3.19593 24.4747 2.54134 24.6286 1.88675C24.2053 2.19479 23.705 2.54134 23.1663 2.9264C23.1663 3.15743 23.1278 3.38846 23.1278 3.61949C23.5511 3.73501 23.9744 3.85053 24.3977 4.00455V3.96604ZM19.9338 39.6606C18.2406 39.6606 16.7782 40.5847 15.9701 41.9324C16.4704 41.9324 16.9706 41.9709 17.4709 42.0094C18.0866 41.3548 18.9717 40.9312 19.9338 40.9312C21.2422 40.9312 22.3966 41.6628 22.9739 42.7795C23.4741 42.895 23.9744 42.972 24.4747 43.0875C23.9359 41.0853 22.0888 39.6221 19.9338 39.6606ZM20.5495 31.6129C20.5495 31.767 20.5495 31.921 20.5495 32.0365C20.5495 32.306 20.511 32.5756 20.4725 32.8451C24.3977 32.9991 27.7841 35.1554 29.7467 38.3129C29.9391 37.8508 30.1315 37.3887 30.324 36.8882C28.1305 33.8077 24.5901 31.767 20.588 31.5744L20.5495 31.6129ZM20.1647 34.2698C20.0492 34.6934 19.9338 35.1169 19.7798 35.5405H19.8568C23.705 35.5405 26.976 37.9663 28.2074 41.3933C28.4768 40.9312 28.7077 40.4692 28.9771 39.9301C27.3608 36.6186 24.0514 34.3468 20.1647 34.2313V34.2698ZM19.8953 36.9652C19.6644 36.9652 19.4335 36.9652 19.2026 36.9652C19.2026 37.0422 19.1256 37.1192 19.0872 37.1962C19.0872 37.1962 19.0872 37.2347 19.0872 37.2732C19.0102 37.4272 18.9332 37.5813 18.8563 37.7353C18.8178 37.8123 18.7793 37.8893 18.7023 37.9663C18.7023 38.0048 18.6254 38.0818 18.6254 38.1203C18.5869 38.1974 18.5099 38.2744 18.4714 38.3899C18.9332 38.2744 19.4335 38.1974 19.9338 38.1974C23.0123 38.1974 25.5906 40.4692 26.0139 43.4726C26.2833 43.5496 26.5527 43.6266 26.8221 43.7036C26.976 43.5111 27.0914 43.3186 27.2454 43.0875C26.6681 39.5836 23.5896 36.9267 19.9722 36.9652H19.8953ZM5.65688 38.0433C5.69536 38.1203 5.73384 38.1974 5.77233 38.2744C6.00322 38.2744 6.23411 38.2744 6.46501 38.2744C10.5056 38.2744 13.8151 34.9244 13.7766 30.8813C13.7766 30.6503 13.7766 30.4193 13.7766 30.1882C13.6997 30.1882 13.6227 30.1112 13.5842 30.0727C13.5842 30.0727 13.5072 30.0727 13.5072 30.0342C13.3533 29.9572 13.1994 29.8802 13.0455 29.8032C12.9685 29.7647 12.853 29.6877 12.7761 29.6492C12.7761 29.6492 12.6991 29.6107 12.6606 29.5721C12.5837 29.5336 12.4682 29.4566 12.3913 29.4181C12.5067 29.8802 12.5837 30.3808 12.5837 30.8813C12.5837 34.2313 9.88992 37.0037 6.50349 37.0037C6.00322 37.0037 5.50295 36.9267 5.04117 36.8497C5.07965 36.9267 5.15661 37.0037 5.19509 37.1192C5.19509 37.1577 5.27206 37.2347 5.27206 37.2732C5.31054 37.3502 5.34902 37.4272 5.42599 37.5043C5.50295 37.6583 5.57992 37.8123 5.65688 37.9663C5.65688 37.9663 5.65688 38.0048 5.69536 38.0433H5.65688ZM6.46501 39.7376H6.38804C6.54197 40.1611 6.65742 40.5847 6.77286 41.0083C12.0834 40.8157 16.3549 36.5031 16.4704 31.1894C16.0471 31.0739 15.6238 30.9583 15.2005 30.8043V30.8813C15.2005 35.733 11.3138 39.6991 6.46501 39.7376ZM15.1235 17.4429C15.1235 14.8631 17.2015 12.7453 19.7798 12.7453C22.3581 12.7453 24.4747 14.8246 24.4747 17.4044C24.4747 19.9843 22.3966 22.1021 19.8183 22.1021C17.24 22.1021 15.1235 20.0228 15.1235 17.4429ZM16.3934 17.4044C16.3934 19.2912 17.9327 20.7929 19.8183 20.7929C21.7039 20.7929 23.2048 19.2527 23.2048 17.3659C23.2048 15.4792 21.6655 13.9775 19.7798 13.9775C17.8942 13.9775 16.3934 15.5177 16.3934 17.4044ZM20.6264 24.5279C20.6264 24.5279 20.6264 24.4509 20.6649 24.4509C20.7419 24.2969 20.8189 24.1429 20.8958 23.9889C20.9343 23.9118 21.0113 23.7963 21.0497 23.7193C21.0497 23.6808 21.0882 23.6423 21.1267 23.6038C21.1652 23.5268 21.2422 23.4113 21.2806 23.3343C20.8189 23.4498 20.3186 23.5268 19.8183 23.5268C16.4704 23.5268 13.6997 20.8314 13.6997 17.4429C13.6997 16.9424 13.7766 16.4418 13.8921 15.9797C13.8151 16.0182 13.7381 16.0952 13.6227 16.1338C13.5842 16.1338 13.5072 16.2108 13.4688 16.2108C13.3918 16.2493 13.3148 16.2878 13.2379 16.3648C13.0839 16.4418 12.93 16.5188 12.7761 16.6343C12.7761 16.6343 12.7376 16.6343 12.6991 16.6343C12.6222 16.6343 12.5452 16.7113 12.4682 16.7498C12.4682 16.9809 12.4682 17.2119 12.4682 17.4429C12.4682 21.486 15.8162 24.7975 19.8568 24.759C20.0877 24.759 20.3186 24.759 20.5495 24.759C20.5495 24.682 20.6264 24.6049 20.6649 24.5664L20.6264 24.5279ZM5.6184 42.5485C5.27206 40.2381 4.31 38.1589 2.88616 36.4261C2.53982 36.6956 2.19349 36.9267 1.84715 37.1577C3.11706 38.6979 4.00215 40.5847 4.34849 42.664C4.77179 42.664 5.15661 42.587 5.6184 42.5485ZM15.2005 8.58669C12.3913 10.512 9.88992 12.1677 9.5051 13.3229C9.5051 13.3999 9.5051 13.4384 9.46662 13.5154C11.968 12.6683 14.046 10.8585 15.2005 8.54819V8.58669ZM2.88616 42.664C2.57831 40.9697 1.84715 39.4295 0.808127 38.1589C0.461788 38.5439 0.230895 38.929 0.115448 39.314C0.769645 40.1996 1.26991 41.2393 1.53929 42.3559C1.92411 42.5485 2.3859 42.6255 2.88616 42.664ZM19.5489 27.4543C19.6644 27.0308 19.7798 26.6072 19.9338 26.1837H19.8568C15.008 26.1837 11.0444 22.2946 11.0059 17.4429V17.3659C10.5826 17.5199 10.1593 17.6355 9.73599 17.751C9.73599 18.4056 9.85144 19.0217 9.96688 19.5992C10.0438 19.9458 10.1593 20.2923 10.2363 20.6004C11.5447 24.4894 15.2005 27.3388 19.5105 27.4158L19.5489 27.4543ZM19.7414 11.2821C23.0893 11.2821 25.86 13.9774 25.86 17.3659C25.86 17.8665 25.7831 18.3671 25.7061 18.8291C25.7831 18.7521 25.8985 18.7136 25.9755 18.6366C25.9755 18.6366 26.0524 18.5981 26.0909 18.5596C26.1679 18.5211 26.2833 18.4441 26.3603 18.4056C26.5142 18.3286 26.6681 18.2516 26.8221 18.1745C26.8221 18.1745 26.899 18.1745 26.899 18.136L27.0914 18.0205C27.0914 17.7895 27.0914 17.5585 27.0914 17.3274C27.0914 13.2844 23.7435 9.97289 19.7029 10.0114C19.472 10.0114 19.2411 10.0114 19.0102 10.0499C19.0102 10.1269 18.9332 10.2039 18.8947 10.2809C18.8947 10.2809 18.8947 10.3194 18.8947 10.3579C18.8178 10.512 18.7408 10.666 18.6639 10.82C18.6254 10.897 18.5869 10.974 18.5099 11.051C18.5099 11.0895 18.433 11.1666 18.433 11.2051C18.3945 11.2821 18.3175 11.3976 18.279 11.4746C18.7408 11.3591 19.2411 11.2821 19.7414 11.2821ZM18.8178 6.04533C18.3175 6.39188 17.7788 6.77694 17.2785 7.12349C16.1625 10.974 13.1224 14.0545 9.19724 15.0556C9.19724 15.4792 9.19724 15.9027 9.27421 16.3263C14.1999 15.1326 17.9712 11.051 18.8178 6.00683V6.04533ZM19.2026 29.6877C19.2026 29.4181 19.2411 29.1486 19.2796 28.8405C16.124 28.6865 13.3148 27.3003 11.3138 25.1055C11.3907 25.7216 11.4292 26.3377 11.4292 26.9538C13.5457 28.802 16.201 29.9572 19.1641 30.0727C19.1641 29.9187 19.1641 29.7647 19.1641 29.6492L19.2026 29.6877ZM11.0829 30.9198C11.0829 30.4963 11.0059 30.1112 10.9289 29.7262C10.6596 30.3423 10.2747 30.9198 9.77447 31.4589C9.54358 33.0761 8.11974 34.3468 6.42652 34.3468C6.34956 34.3468 6.23411 34.3468 6.15715 34.3468C5.65688 34.6549 5.15661 35.0014 4.65634 35.3094C5.19509 35.5405 5.81081 35.656 6.42652 35.656C9.00483 35.656 11.0829 33.5382 11.0829 30.9583V30.9198ZM19.7414 8.58669C24.5901 8.58669 28.5538 12.4757 28.5923 17.3274V17.4044C29.0156 17.2504 29.4389 17.1349 29.8622 17.0194C29.6698 11.7056 25.3598 7.43153 20.0492 7.31601C19.9338 7.73957 19.8183 8.16313 19.6644 8.58669H19.7414Z" fill="#DD2026"/>
<path d="M56.6454 44.6276L53.9517 43.742C53.336 44.0115 52.6818 44.2811 51.9891 44.6276C54.1056 44.7817 56.8763 45.8213 58.1463 46.3219C57.646 45.7828 57.1457 45.2052 56.6454 44.6276Z" fill="#C76E28"/>
<path d="M66.6893 57.4499C66.3429 55.7172 65.6887 54.0229 64.9961 52.5212L64.8421 52.2132C64.1495 51.7126 63.4568 51.212 62.7641 50.6345C62.8411 50.75 62.8795 50.8655 62.9565 50.9425C64.2649 53.3298 65.1885 55.6787 65.5733 57.6424C65.9196 59.2982 65.8427 60.7614 65.5733 62.8022C65.9581 62.8022 66.3429 62.8022 66.7278 62.8407C66.9971 60.8769 67.0741 59.2212 66.7278 57.4114L66.6893 57.4499Z" fill="#C76E28"/>
<path d="M44.9469 70.9653L45.2932 70.6573C46.7555 69.2326 47.91 67.3458 48.5642 65.3435C48.7951 64.6505 48.949 63.9188 48.4488 63.4953C47.91 63.0332 47.1404 63.4953 46.3322 63.9574L46.0629 64.1114C45.2163 64.6119 43.7539 66.2292 42.0992 68.1159C41.7913 68.4625 41.522 68.7705 41.2911 69.0401C39.9827 70.5033 39.6748 71.2734 39.1746 72.6596C39.0591 72.9676 39.213 73.2757 39.5209 73.3912C39.8287 73.5067 40.1366 73.3527 40.2521 73.0446C40.7138 71.7354 40.9447 71.1194 42.1377 69.8102C42.3686 69.5406 42.6379 69.2326 42.9458 68.886C44.1003 67.5769 45.8704 65.5746 46.6016 65.1125L46.9095 64.9585C47.1019 64.843 47.3713 64.689 47.5637 64.6119C47.5637 64.7275 47.4867 64.843 47.4482 64.997C46.871 66.8453 45.7935 68.5395 44.4851 69.8102L44.1388 70.1182C42.7149 71.4274 40.1366 73.8918 38.5204 78.2429C38.9437 78.2429 39.367 78.2429 39.7518 78.2429C41.2526 74.3923 43.6 72.159 44.9084 70.9268L44.9469 70.9653Z" fill="#2B2A66"/>
<path d="M47.2558 72.1205C47.987 71.2734 48.7566 70.3877 49.5647 69.2711C52.143 65.5746 51.7197 63.0332 50.9501 61.57C50.3729 60.4533 49.5647 60.1068 49.026 60.0298C48.1024 59.8758 47.1019 60.2608 46.2553 61.0694C45.755 61.5315 45.1008 62.0706 44.2542 62.7637C43.1767 63.6493 41.8298 64.7659 40.329 66.1521C37.6353 68.6165 37.3274 70.5033 36.9811 72.8521L36.9041 73.2371C36.5962 75.2394 36.3269 76.4716 35.6727 78.2043C36.0575 78.2043 36.4808 78.2043 36.9041 78.2043C37.4813 76.5871 37.7507 75.3164 38.0201 73.3912L38.097 73.0061C38.4434 70.7728 38.7128 69.1941 41.0987 66.9608C42.5995 65.5746 43.9463 64.4964 44.9854 63.6108C45.832 62.9177 46.5246 62.3401 47.0249 61.8395C47.6021 61.3005 48.2948 60.9924 48.8336 61.1079C49.2569 61.1849 49.6417 61.493 49.9496 62.0321C50.8346 63.7648 50.3729 65.9981 48.6412 68.5395C47.8715 69.6176 47.1404 70.5033 46.4092 71.3119C45.2162 72.6596 44.1003 73.9302 43.1767 75.971C42.7919 76.7796 42.484 77.5497 42.1762 78.2428C42.5995 78.2428 43.0228 78.2428 43.4076 78.2428C43.6385 77.6653 43.9079 77.0492 44.2157 76.4331C45.1008 74.5463 46.1013 73.3912 47.2558 72.0435V72.1205Z" fill="#DD2026"/>
<path d="M49.988 70.8113C49.6802 70.7343 49.3723 70.8883 49.2569 71.1964C48.7951 72.8136 47.0634 75.8555 45.678 78.3969C46.1398 78.3969 46.5631 78.3969 46.9864 78.3969C48.3718 75.9325 49.9111 73.0831 50.3728 71.4659C50.4498 71.1579 50.2959 70.8498 49.988 70.7343V70.8113Z" fill="#C76E28"/>
<path d="M53.9902 64.3809C54.4135 62.0321 54.6059 59.8373 52.3739 58.2586C50.4883 56.9494 48.1794 57.0264 45.9859 58.4511C44.3696 59.4907 42.8688 60.6074 41.0602 62.1476C39.3285 63.5723 38.8282 64.0344 36.9041 66.2677C35.1339 68.347 34.8261 70.5033 34.4797 72.9676L34.3643 73.7377C34.0564 75.971 33.7101 76.7411 32.9789 78.2429H34.2488C34.8261 77.0107 35.1724 76.0095 35.4803 73.8917L35.5957 73.0831C35.9036 70.6958 36.1729 68.809 37.7507 66.9608C39.5978 64.8045 40.0981 64.3424 41.7528 62.9947C43.5615 61.493 44.9853 60.4149 46.6016 59.3752C47.6406 58.6821 49.6802 57.7965 51.7197 59.1827C53.2975 60.2608 53.336 61.647 52.8742 64.1499C52.4124 66.6142 52.22 67.6539 51.9506 69.9642C51.6812 72.159 50.7962 74.6619 49.4878 78.3969C49.988 78.3969 50.4113 78.3199 50.7577 78.2044C51.9891 74.7389 52.7972 72.313 53.0666 70.1182C53.3745 67.8079 53.5284 66.8068 53.9902 64.3424V64.3809Z" fill="#F1A41E"/>
<path d="M56.8379 63.7263C57.4151 60.2993 56.9533 57.989 55.3755 56.4103C53.8747 54.9471 52.7203 54.9471 50.142 55.1396C49.6032 55.1396 49.1799 55.1781 48.7951 55.2166C47.3713 55.2936 46.8325 55.2936 44.9469 56.1022C42.6764 57.0649 41.7913 57.4884 39.6748 59.2212C39.29 59.5292 38.9437 59.8373 38.6358 60.0683C38.1355 60.4919 37.212 61.262 37.1735 61.3005C36.7502 62.3016 36.3654 63.2642 36.019 64.1884C37.058 62.9947 38.2895 61.8395 39.367 60.9539C39.6748 60.6844 40.0596 60.4148 40.4445 60.0683C42.4455 58.4126 43.2921 58.0275 45.4087 57.1034C47.0634 56.3718 47.4867 56.3718 48.8336 56.2948C49.2184 56.2948 49.6417 56.2948 50.2189 56.2178C52.8357 56.0637 53.4899 56.1022 54.5674 57.1419C55.4525 58.0275 56.3761 59.5292 55.7219 63.4183C55.5295 64.4964 55.2986 65.6901 55.0677 66.9223C54.5674 69.5021 54.0287 72.39 53.6823 75.1624C54.375 73.8147 54.9522 72.236 55.5295 70.6573C55.7604 69.4636 55.9528 68.27 56.1837 67.1533C56.4146 65.9211 56.6455 64.7275 56.8379 63.6108V63.7263Z" fill="#126491"/>
<path d="M59.2622 58.9516C58.9929 55.1011 57.2996 53.7534 55.9143 53.3298C54.1056 52.7523 52.6818 52.2902 50.5268 52.4442C48.4487 52.5982 45.0623 53.1373 42.8688 53.8304C42.2916 54.0229 41.368 54.4465 40.7138 54.7545C40.2905 55.4091 39.9057 56.0637 39.5209 56.6798C40.7138 55.9867 42.0222 55.2936 43.2152 54.9086C45.4471 54.177 48.872 53.7149 50.6037 53.5994C52.297 53.4839 53.6053 53.8304 55.5679 54.4465C57.0687 54.9086 57.9538 56.4873 58.1078 59.0286C58.2617 61.1849 58.0308 63.6108 57.4536 66.5372C57.8769 65.8441 58.3771 65.1895 58.9544 64.6504C59.2622 62.5326 59.3777 60.6844 59.2622 58.9516Z" fill="#18152C"/>
<path d="M61.0709 55.4861C60.3397 52.9833 58.5311 51.7896 56.6454 50.8655C54.5674 49.8258 52.1045 50.1724 49.026 50.5959L48.4872 50.673C47.3712 50.827 46.4862 50.904 45.7165 50.981C44.9469 51.058 44.1772 51.0965 43.3306 51.2505C42.9458 51.7126 42.561 52.1747 42.2146 52.6367C43.677 52.2902 44.6775 52.2132 45.832 52.1362C46.6016 52.0592 47.4867 51.9821 48.6412 51.8281L49.1799 51.7511C52.0661 51.3276 54.375 51.0195 56.1452 51.9051C58.0308 52.8678 59.4162 53.8689 59.9549 55.8327C60.4937 57.6424 60.7246 60.3763 60.6476 63.5338C60.9939 63.3798 61.4172 63.2642 61.8021 63.1487C61.8405 60.0298 61.5712 57.3729 61.0709 55.5246V55.4861Z" fill="#DD2026"/>
<path d="M54.0671 49.3638C54.375 49.4023 54.6829 49.2098 54.7598 48.9017C54.8368 48.5937 54.6059 48.2856 54.298 48.2471C53.7593 48.1316 52.297 47.9006 50.9116 47.9006C50.1035 47.9006 48.4103 48.0161 46.2937 48.3626C45.755 48.8247 45.2547 49.2868 44.7545 49.7873C47.7176 49.2483 49.9111 49.0557 50.9116 49.0942C52.2585 49.0942 53.7208 49.3638 54.1056 49.4408L54.0671 49.3638Z" fill="#DC8526"/>
<path d="M64.0725 56.8338C63.6877 54.331 62.5717 52.8293 61.6096 51.5201C61.3787 51.1736 61.1094 50.8655 60.917 50.519C59.6855 48.6322 56.1067 46.7069 54.5289 46.1293L49.8726 45.8598C49.2184 46.2834 48.5257 46.7069 47.7945 47.2075L48.4487 47.1305C50.8346 46.938 52.9127 46.7454 54.1056 47.2075C55.6449 47.7851 58.8774 49.5948 59.9164 51.1735C60.1473 51.5201 60.3782 51.8667 60.6476 52.2132C61.5712 53.4839 62.5717 54.8316 62.918 57.0264C63.2259 58.9131 63.2259 61.0309 63.1489 62.9562C63.5338 62.9177 63.9186 62.8792 64.3034 62.8792C64.3804 60.9154 64.3804 58.7976 64.0725 56.8724V56.8338Z" fill="#407044"/>
<path d="M74.1548 58.1815V57.9505C73.6546 57.5654 73.1543 57.2189 72.5386 56.8723L72.6155 57.1034C73.1543 58.7591 73.6161 60.6459 73.2313 62.9177C73.7315 62.8022 74.1548 62.6482 74.4627 62.3786C74.6166 60.8769 74.4627 59.4907 74.1548 58.1815Z" fill="#18152C"/>
<path d="M69.3446 58.2585C68.9597 56.1022 68.7288 55.4091 68.4979 54.8316L68.421 54.639C67.9977 54.3695 67.5359 54.1 67.1126 53.8304C66.9587 53.7149 66.8047 53.6379 66.6508 53.5224L66.7278 53.7534C66.9202 54.2925 67.0741 54.639 67.228 54.9086C67.5359 55.5632 67.6898 55.9482 68.1901 58.4511C68.4595 59.8758 68.3825 61.493 68.1901 62.9562C68.5749 62.9562 68.9597 62.9947 69.3446 63.0332C69.537 61.493 69.6139 59.7602 69.3446 58.2585Z" fill="#126491"/>
<path d="M71.3456 56.4103V56.2177C70.8454 55.9867 70.3451 55.7172 69.8448 55.4476L69.9218 55.6402V55.8327C70.6145 58.0275 71.0762 59.6062 70.9608 61.416C70.9223 62.0321 70.8454 62.6096 70.8069 63.1487C71.2302 63.1487 71.615 63.1487 71.9613 63.1487C71.9998 62.6481 72.0768 62.1091 72.1153 61.5315C72.2692 59.7987 71.8844 58.2585 71.3841 56.4488L71.3456 56.4103Z" fill="#2B2A66"/>
<path d="M69.6139 13.2072C70.8454 12.4371 72.0383 12.2831 73.2313 13.3997C73.3082 13.4767 73.3852 13.5538 73.4237 13.6308C73.4237 13.6308 73.4237 13.6308 73.4622 13.7078C73.847 14.2083 73.9624 14.8629 73.8855 15.633C72.4231 14.8244 70.9608 14.0158 69.6139 13.2842V13.2072ZM72.8464 19.2911C70.9993 17.6353 69.1522 16.1721 67.4589 14.8629C66.9587 15.325 66.4584 15.8256 65.9581 16.3261C67.9592 17.7893 70.2297 19.214 72.3847 20.5617C72.5386 20.1382 72.731 19.7531 72.8849 19.3296L72.8464 19.2911ZM64.7267 42.4328C64.7267 42.3943 64.6882 42.3173 64.6497 42.2788C63.3798 39.853 60.5321 35.4248 59.5701 33.153C58.8004 31.4203 58.3002 30.2266 58.2617 30.1881C58.4926 33.8846 59.5316 37.3886 61.1479 40.6616C61.2248 40.8926 61.3403 41.0851 61.4172 41.2777C62.6871 43.742 64.6113 47.1305 65.4963 49.4793C66.0351 50.9425 66.4199 52.3287 66.6508 53.5609C66.7663 53.6379 66.9202 53.7149 67.0356 53.8304C67.0741 53.8304 67.1511 53.9074 67.1896 53.9074C67.8822 50.1339 66.6893 46.1678 64.6882 42.4328H64.7267ZM57.2227 30.4576C56.8763 28.1088 56.6454 25.683 56.453 23.2956C56.2221 23.4111 56.0297 23.5267 55.7988 23.6422C55.7988 25.3749 55.8373 27.1847 55.7988 28.8789C55.5679 34.1927 56.2221 40.1225 57.7614 45.8598C58.0693 46.2063 58.3771 46.5529 58.7235 46.8609C58.7235 45.7058 58.6465 44.5506 58.5696 43.3954C60.1473 46.2063 61.6096 48.5167 62.8026 50.596C63.5338 51.212 64.2649 51.7511 64.9961 52.2902C64.1879 48.6322 61.6096 44.5891 58.3771 40.315C58.1078 36.657 57.6845 33.1915 57.2612 30.3806L57.2227 30.4576ZM72.1922 56.6798C73.5776 56.4488 75.1554 56.2563 76.8871 56.1407C77.118 55.4862 77.3489 54.7545 77.5797 54.0614C75.0014 54.408 72.6155 54.9471 70.7299 55.9097C71.2302 56.1792 71.7305 56.4488 72.2307 56.7183L72.1922 56.6798ZM75.3863 60.4148C75.3863 60.5304 75.3863 60.6074 75.3863 60.7229C75.5787 60.0683 75.925 59.1057 76.3098 57.9505C75.5402 57.9505 74.809 57.9505 74.1164 57.989C74.963 58.7206 75.4632 59.4907 75.4247 60.4148H75.3863ZM80.0811 38.4668C79.8117 38.1587 79.5039 37.8507 79.1575 37.5426C79.0421 37.7352 78.8497 38.0047 78.7727 38.1587C77.5797 40.1995 76.2329 42.2788 74.886 44.2041C72.5001 47.5925 70.3066 51.0195 68.1901 54.5235C68.421 54.639 68.6519 54.7931 68.8828 54.9086C69.7679 53.2913 70.6914 51.6741 71.6535 50.0954C74.0779 46.0523 77.0025 42.0863 80.0811 38.5053V38.4668ZM69.383 55.1781C69.46 55.2166 69.537 55.2551 69.6139 55.2936C71.6535 54.1 74.6166 53.2913 78.08 52.5597C78.3109 51.8281 78.5803 51.058 78.8112 50.3649C75.0014 51.2506 71.615 52.7523 69.383 55.2166V55.1781ZM53.2205 24.9128C52.4509 25.2594 51.6428 25.6059 50.7962 25.9525C50.4498 26.4146 50.0265 27.0692 49.6802 27.5312C49.7187 28.4168 49.8341 29.3795 50.0265 30.4576C51.181 28.9174 52.2585 27.0692 53.182 24.9899V24.9128H53.2205ZM69.2291 35.5403C70.9223 42.5868 70.9608 45.7443 70.9608 48.5937C72.9619 42.3558 72.1922 34.8472 68.4595 28.4939C69.537 29.3025 70.7299 30.0726 71.8074 30.7657C71.4611 30.2266 71.1532 29.649 70.9223 29.0714C68.2671 26.2605 64.9191 22.8721 62.1099 19.5606C61.6096 19.9457 61.0709 20.3307 60.5321 20.7158C62.3023 23.1416 64.6113 25.4134 67.0356 27.3772C67.6513 29.5335 68.1901 31.4588 68.6134 33.153C68.1901 32.6139 67.8822 32.2674 67.8822 32.2674C64.2264 27.6082 61.6481 24.4123 59.724 21.2548C59.3392 21.5244 58.9544 21.7554 58.5696 22.0249C61.0324 27.8008 65.4579 32.845 69.1906 35.5403H69.2291ZM63.1489 36.6185C65.4194 40.1225 66.6508 41.9322 67.7668 44.8972C68.5749 47.246 69.1137 49.4793 69.1906 51.4431C70.6914 46.2449 68.9213 40.8541 66.0351 36.0024C66.0351 36.0024 66.0351 35.9639 65.9966 35.9254C65.9966 35.9254 65.9966 35.9254 65.9966 35.8869C65.9196 35.7714 65.8427 35.6559 65.7657 35.5018C63.8031 32.3059 60.6861 28.4553 59.6086 26.4146C58.8389 24.9899 58.1463 23.6422 57.646 22.6025C57.4921 22.6795 57.3381 22.7951 57.1842 22.8721C57.9923 27.9163 60.4552 32.768 63.1874 36.58L63.1489 36.6185ZM50.5268 32.9605C50.7192 33.7691 50.9501 34.5777 51.2579 35.4633C51.2579 35.5403 51.2964 35.5788 51.3349 35.6559C53.3745 32.1134 54.3365 28.8019 54.9522 25.837C53.259 28.1473 51.9506 30.1111 50.5653 32.9605H50.5268ZM54.8753 30.4961C54.8753 30.5731 53.6823 34.1156 52.3739 38.1972C52.6818 38.8518 53.0281 39.5064 53.4129 40.1225C54.452 37.0421 54.9907 33.8076 54.8753 30.4961ZM74.9245 34.0386C74.2318 33.4611 73.5391 32.845 72.9619 32.2289C73.0773 35.0783 73.1928 39.1599 73.4237 44.9357C74.7705 41.0081 75.1169 37.2346 74.9245 34.0771V34.0386ZM71.1917 23.7192C68.9982 21.5629 66.7663 19.4836 64.7267 17.4813C64.3034 17.8664 63.8801 18.2129 63.4183 18.5595C63.3029 18.6365 63.2259 18.7135 63.1104 18.7905C65.4579 21.1008 68.1901 23.1801 70.8454 24.9514C70.9223 24.5278 71.0763 24.1042 71.1917 23.6807V23.7192ZM76.4253 40.1995C76.8871 39.0058 77.3873 37.6581 77.7337 36.2719C77.2719 35.8869 76.8101 35.5403 76.3483 35.1553C76.2713 36.811 76.3483 38.4283 76.4253 40.1995ZM70.6914 52.6753C72.6155 51.2891 75.7711 50.0954 79.273 49.0172C79.5423 48.2086 79.8502 47.4385 80.1196 46.7069C76.3098 47.9006 72.9234 49.7873 70.6914 52.6753ZM72.5771 49.7873C75.1939 47.7466 77.6567 46.3604 80.6583 45.0512C80.9277 44.2041 81.1971 43.434 81.351 42.7409C77.9646 44.4351 74.809 46.7839 72.5771 49.7488V49.7873ZM75.6172 45.2822C76.7331 44.4736 78.9266 43.2029 81.5434 41.7397C81.5434 41.3547 81.5434 41.0466 81.5049 40.7771C81.428 40.5075 81.274 40.1995 81.1586 39.93C79.0805 41.3932 77.1564 43.2029 75.6556 45.2437L75.6172 45.2822Z" fill="#0E4022"/>
<path d="M66.4584 9.47218C66.4584 9.16414 66.5354 8.8946 66.6893 8.62506C67.6129 9.31816 68.5364 9.97275 69.3446 10.5503C69.0367 10.8969 68.6134 11.1279 68.1131 11.1279C67.1896 11.1279 66.4584 10.3963 66.4584 9.47218ZM35.4803 9.66471H39.4054L41.1756 11.436H45.5241L46.3322 12.2446C46.2553 12.4756 46.1783 12.6681 46.1783 12.9377C46.1783 13.8618 46.9095 14.5934 47.833 14.5934C48.7566 14.5934 49.4878 13.8618 49.4878 12.9377C49.4878 12.0135 48.7566 11.2819 47.833 11.2819C46.9095 11.2819 47.3713 11.3204 47.1404 11.436L46.0244 10.3193H41.6759L39.9057 8.54805H35.9805L33.5562 6.12221H28.1687L26.9757 7.31588C27.1681 7.66243 27.322 8.04748 27.5145 8.43254L28.6689 7.27737H33.0944L35.5187 9.70322L35.4803 9.66471ZM40.5984 19.7916C40.3675 19.7916 40.1366 19.8686 39.9057 19.9457L37.4044 17.4428H34.7491L33.864 18.3284H30.8624C30.9394 18.7135 31.0163 19.0985 31.0933 19.4836H34.3258L35.2109 18.598H36.9041L39.0591 20.7543C38.9821 20.9468 38.9052 21.2163 38.9052 21.4474C38.9052 22.3715 39.6363 23.1031 40.5599 23.1031C41.4835 23.1031 42.2146 22.3715 42.2146 21.4474C42.2146 20.5232 41.4835 19.7916 40.5599 19.7916H40.5984ZM58.9544 16.4417V2.77224C58.5311 2.4642 58.1463 2.19466 57.7999 1.96363V16.5187C57.2227 16.7882 56.7994 17.3658 56.7994 18.0589C56.7994 18.752 57.5305 19.7146 58.4541 19.7146C59.3777 19.7146 60.1088 18.983 60.1088 18.0589C60.1088 17.1348 59.6086 16.7112 58.9544 16.4802V16.4417ZM37.058 22.7951C37.058 21.8709 36.3269 21.1393 35.4033 21.1393C34.4797 21.1393 33.7486 21.8709 33.7486 22.7951C33.7486 23.7192 34.4797 24.4508 35.4033 24.4508C36.3269 24.4508 35.8266 24.4123 36.019 24.3353L37.4813 25.7985V27.8393C37.8662 27.8393 38.251 27.9163 38.6358 27.9163V25.2979L36.8656 23.5652C36.9811 23.3341 37.058 23.0646 37.058 22.7951ZM51.5658 19.4451C50.8346 19.4451 50.2574 19.9072 50.0265 20.5232H47.2943L42.5995 25.2209V27.9548C42.9843 27.9548 43.3691 27.8778 43.7539 27.8393V25.7215L47.7946 21.6784H50.065C50.2959 22.2945 50.9116 22.7566 51.6043 22.7566C52.297 22.7566 53.259 22.0249 53.259 21.1008C53.259 20.1767 52.5279 19.4451 51.6043 19.4451H51.5658ZM31.2472 11.898C32.1708 11.898 32.902 11.1664 32.902 10.2423C32.902 9.31816 32.1708 8.58656 31.2472 8.58656C30.3237 8.58656 29.5925 9.31816 29.5925 10.2423C29.5925 11.1664 29.631 10.6659 29.7079 10.8584L28.8998 11.6285C29.0537 12.0135 29.1692 12.3986 29.3231 12.8222L30.5161 11.744C30.747 11.8595 31.0163 11.9365 31.2857 11.9365L31.2472 11.898ZM43.9463 18.9445C44.8699 18.9445 45.6011 18.2129 45.6011 17.2888C45.6011 16.3647 44.8699 15.633 43.9463 15.633C43.0228 15.633 43.4076 15.7101 43.1382 15.8256L39.6748 12.3601H33.8255L31.4396 14.7474H29.9388C30.0543 15.1325 30.1697 15.5175 30.2852 15.9026H31.9399L34.3258 13.5153H39.213L42.3686 16.6727C42.2916 16.8652 42.2531 17.0577 42.2531 17.2503C42.2531 18.1744 42.9843 18.906 43.9079 18.906L43.9463 18.9445ZM53.4899 5.12107V1.27053C53.0666 1.42455 52.6818 1.57857 52.2585 1.7711L52.3355 3.96591H50.1805L49.5647 3.34982C49.2569 3.58085 48.9105 3.77338 48.5642 4.00441L49.6802 5.12107H53.4514H53.4899ZM50.3729 9.12564C50.6038 9.74172 51.2195 10.2038 51.9121 10.2038C52.6048 10.2038 53.5669 9.47218 53.5669 8.54805C53.5669 7.62392 52.8357 6.89232 51.9121 6.89232C50.9886 6.89232 50.6038 7.35439 50.3729 7.97047H48.1409L45.9089 5.73716C45.5626 5.92969 45.2163 6.12221 44.8314 6.31474L47.6791 9.16414H50.4113L50.3729 9.12564ZM55.1447 0.923981V11.6285L52.2585 14.5164C51.6428 14.2469 50.9116 14.3239 50.4113 14.8629C49.7571 15.5175 49.7571 16.5572 50.4113 17.2118C51.0655 17.8664 52.1046 17.8664 52.7588 17.2118C53.259 16.7112 53.3745 15.9796 53.0666 15.3635L56.2606 12.1676V1.11651C55.9528 1.00099 55.6449 0.923981 55.414 0.923981C55.1831 0.923981 55.2216 0.923981 55.1062 0.923981H55.1447ZM28.515 4.85153C29.2077 4.85153 29.8234 4.38947 30.0543 3.77338H33.9795C33.5177 3.38833 33.0559 3.00327 32.5941 2.61822H30.0928C29.8619 2.00213 29.2462 1.54007 28.5535 1.54007C27.8608 1.54007 26.8987 2.27167 26.8987 3.1958C26.8987 4.11993 27.6299 4.85153 28.5535 4.85153H28.515ZM61.6866 4.81303C61.3018 4.50498 60.917 4.19694 60.5322 3.9274V13.7848L64.4573 17.7123C64.7652 17.4428 65.0346 17.2118 65.3039 16.9422L61.6866 13.3227V4.81303ZM64.3034 6.81531C64.034 6.62278 63.7647 6.43026 63.4953 6.23773C63.3798 6.16072 63.2644 6.0452 63.1489 5.96819V10.7429L67.4974 14.8244C67.8053 14.5549 68.1131 14.2854 68.3825 14.0543L64.3034 10.2423V6.81531Z" fill="#60BAD0"/>
<path d="M34.7109 50.6731H38.5207C38.1743 50.3266 37.7895 49.98 37.4047 49.6335H34.7109V47.4387C34.4415 47.2461 34.1722 47.0536 33.9028 46.8611V49.595H33.1716L31.5939 48.0162V45.5134C31.286 45.3594 30.9397 45.2053 30.5933 45.0513V48.0162L29.0156 49.595H28.3229V44.1657C28.0535 44.0887 27.7841 43.9732 27.4763 43.8962V49.6335H22.9739V42.7795C22.7045 42.7025 22.3966 42.664 22.1273 42.6255V49.672H21.3961L19.8183 48.0932V42.2789C19.472 42.2404 19.1641 42.2019 18.8178 42.1634V48.0932L17.24 49.672H16.5473V41.9709C16.278 41.9709 15.9701 41.9709 15.7007 41.9709V49.7105H11.2368V41.9709C11.1983 41.9709 11.1598 41.9709 11.0829 41.9709C11.0059 41.9709 10.8905 41.9709 10.8135 41.9709C10.6596 41.9709 10.5441 41.9709 10.4287 41.9709V49.672H9.69752L8.11975 48.0932V42.2404C7.77341 42.2789 7.46555 42.3174 7.11921 42.3944V48.0932L5.54144 49.672H4.84876V42.664C4.57939 42.664 4.27153 42.7025 4.00215 42.7025V49.672H3.0401C3.15555 50.0185 3.27099 50.3651 3.34796 50.7116H4.00215V52.8679C4.31001 53.8306 4.57939 54.7932 4.84876 55.7173V50.7116H5.54144L7.11921 52.2903V58.7978L6.23412 59.6834C6.5035 60.261 6.81135 60.723 7.11921 60.9541C7.73492 61.3776 8.4276 61.6857 9.19725 61.8782L9.65903 61.4161H10.3902V62.1477C10.6596 62.1862 10.9289 62.2247 11.2368 62.2632V61.4161H15.7007V62.5328C15.9701 62.5328 16.2395 62.5328 16.5473 62.5713V61.4161H17.24L18.6254 62.8023C19.0102 62.8793 19.4335 62.9563 19.8183 63.0334V62.9563L21.3961 61.3776H22.1273V63.9575C22.3197 64.073 22.5506 64.1885 22.743 64.3425C22.8199 64.381 22.8969 64.4581 22.9354 64.4966V61.3776H27.4378V71.0425H26.1294C26.2064 71.389 26.3218 71.7356 26.3988 72.0821H27.4763V75.7016C27.7072 76.3177 27.9765 76.8568 28.3229 77.2804V72.1206H29.0156L30.5933 73.6994V78.32C30.9782 78.32 31.286 78.166 31.5939 78.012V73.6994L33.1716 72.1206H33.9028V72.5827C34.1337 71.235 34.3646 69.8103 34.7494 68.5011V61.4161H37.2123C37.3662 61.0696 37.5201 60.723 37.674 60.3765H34.7494V50.7116L34.7109 50.6731ZM10.4287 60.3765H9.69752L8.11975 58.7978V52.2903L9.69752 50.7116H10.4287V60.3765ZM15.7392 60.3765H11.2753V50.7116H15.7392V60.3765ZM18.8178 58.7978L17.24 60.3765H16.5473V50.7116H17.24L18.8178 52.2903V58.7978ZM22.1657 60.3765H21.4346L19.8568 58.7978V52.2903L21.4346 50.7116H22.1657V60.3765ZM27.4763 60.3765H22.9739V50.7116H27.4763V60.3765ZM30.5548 69.5023L28.9771 71.081H28.2844V61.4161H28.9771L30.5548 62.9949V69.5023ZM30.5548 58.7978L28.9771 60.3765H28.2844V50.7116H28.9771L30.5548 52.2903V58.7978ZM33.9028 71.081H33.1716L31.5939 69.5023V62.9949L33.1716 61.4161H33.9028V71.081ZM33.9028 60.3765H33.1716L31.5939 58.7978V52.2903L33.1716 50.7116H33.9028V60.3765ZM40.0215 52.2518V55.8328C39.7136 56.2949 39.4442 56.7955 39.1749 57.2575V51.3277C39.4827 51.6357 39.7521 51.9438 40.0215 52.2133V52.2518Z" fill="#BADBE6"/>
<path style="mix-blend-mode:multiply" d="M63.3413 18.6365C63.4183 18.5595 63.4953 18.521 63.5722 18.444C66.9587 15.7101 69.8063 11.436 72.5001 12.8607C70.9223 11.7055 66.9587 8.8176 63.4568 6.19923C60.0319 3.61937 56.9148 0.88548 55.414 0.88548C50.7962 0.88548 46.2168 7.31589 40.7138 7.31589C35.2109 7.31589 30.2082 -1.65588 26.8218 0.269393C23.3199 2.23317 27.0911 6.7383 28.7459 11.2434C30.1697 15.094 31.6705 19.9072 31.9014 26.7611C34.0949 27.4542 37.0965 28.0318 41.0217 28.0318C44.9469 28.0318 46.871 27.3772 49.6802 26.4146C56.0682 24.1042 60.1858 21.1778 63.3798 18.6365H63.3413Z" fill="url(#paint0_linear_12_102)"/>
<path style="mix-blend-mode:multiply" d="M28.7847 11.2821C28.7847 11.2051 28.7077 11.0896 28.6692 11.0126C27.1299 6.93098 23.9744 2.88791 26.1294 0.770111C24.5516 1.92527 20.588 4.81318 17.0091 7.31603C13.5073 9.78038 9.92841 11.8982 9.46663 13.3229C8.04279 17.7125 12.7376 24.0659 11.0444 29.3026C9.46663 34.2698 -0.731146 36.5416 0.038497 40.3922C0.80814 44.3197 6.27261 42.1249 11.0444 41.9709C15.1235 41.8169 20.1647 41.8554 26.7836 43.7422C28.092 41.8939 29.5928 39.1985 30.7857 35.4635C31.6708 32.7296 31.9787 29.6877 31.9017 26.7228C31.6708 19.9073 30.17 15.1326 28.7462 11.3206L28.7847 11.2821Z" fill="url(#paint1_linear_12_102)"/>
<path style="mix-blend-mode:multiply" d="M11.1214 41.9324C11.0444 41.9324 10.9289 41.9324 10.852 41.9324C6.50349 42.1634 1.69322 43.8962 0.346344 41.1623C0.962059 43.0106 2.46286 47.6697 3.77126 51.8668C5.04117 55.9484 5.96474 60.0299 7.15769 60.9156C10.8905 63.6495 18.3945 61.1081 22.8199 64.3426C27.0145 67.3845 26.0524 77.7809 29.9391 78.243C33.9028 78.7051 33.518 72.8523 34.8264 68.2701C35.9423 64.3426 37.5201 59.5294 41.3683 53.8691C40.0215 52.0208 37.9049 49.7875 34.7494 47.4772C32.402 45.7829 29.6313 44.5508 26.7836 43.7036C20.2416 41.8169 15.2005 41.7784 11.1598 41.9324H11.1214Z" fill="url(#paint2_linear_12_102)"/>
<path style="mix-blend-mode:multiply" d="M34.7876 68.1929C34.7876 68.27 34.7491 68.3855 34.7106 68.4625C33.5946 72.6596 33.7486 77.7808 30.7469 78.2429C32.7095 78.2429 37.5968 78.2429 41.9453 78.3199C46.2168 78.3969 50.3729 78.7819 51.6043 77.8963C55.3371 75.1624 55.2601 67.2688 59.6855 64.0344C63.8801 60.9924 73.5006 65.1125 75.1169 61.57C76.8101 57.912 71.1147 56.4873 67.1126 53.8304C63.7262 51.5586 59.6471 48.5552 55.414 43.1259C53.259 43.8575 50.4498 45.1667 47.2943 47.4385C44.9469 49.1328 42.9458 51.4046 41.2526 53.8689C37.4428 59.5292 35.8651 64.3039 34.7491 68.1929H34.7876Z" fill="url(#paint3_linear_12_102)"/>
<path style="mix-blend-mode:multiply" d="M67.0741 53.7919C67.1511 53.8304 67.228 53.9074 67.305 53.946C70.9223 56.3333 75.8865 57.758 75.3478 60.7614C75.9635 58.9132 77.4643 54.2155 78.8881 50.0954C80.2735 46.0523 81.9282 42.2018 81.4664 40.7771C80.0426 36.3875 72.5001 34.0001 70.8069 28.8019C69.1906 23.8732 76.0789 16.0181 73.2313 13.3612C70.2681 10.6274 67.1511 15.6331 63.4183 18.5595C60.2243 21.0623 56.1067 24.0272 49.6417 26.3761C49.6417 28.6479 50.0265 31.7283 51.2579 35.4248C52.143 38.1587 53.6823 40.7771 55.491 43.1644C59.6855 48.5167 63.7262 51.5201 67.0741 53.7919Z" fill="url(#paint4_linear_12_102)"/>
<path d="M241.822 1.92511V76.125" stroke="white" stroke-width="2" stroke-miterlimit="10"/>
<path d="M180.366 13.6693C170.36 13.6693 156.276 16.6727 140.998 22.256C128.261 26.9151 115.639 32.8449 102.016 41.4702C109.982 38.1972 125.721 34.5392 138.689 34.5392C151.658 34.5392 168.706 41.2391 150.273 64.7659C204.609 29.1869 203.109 13.6693 180.366 13.6693Z" fill="#F88011"/>
<path d="M428.306 8.77908H429.191C441.967 8.77908 454.743 8.77908 467.481 8.77908C472.946 8.77908 478.256 9.81873 483.182 12.3216C491.148 16.3647 496.189 22.718 498.344 31.3818C499.768 37.1961 499.691 43.0104 497.843 48.7477C495.688 55.4091 491.455 60.4919 485.491 64.1114C481.258 66.6912 476.678 68.2314 471.753 68.732C470.098 68.886 468.443 69.0016 466.827 69.0016C454.282 69.0016 441.775 69.0016 429.23 69.0016C416.685 69.0016 428.537 69.0016 428.229 68.9631C428.075 68.424 428.152 10.0113 428.268 8.77908H428.306ZM443.584 21.0238V56.2948C443.814 56.2948 444.007 56.3718 444.199 56.4103C444.931 56.4103 445.623 56.4488 446.354 56.4488C453.397 56.4488 460.439 56.4488 467.443 56.3718C469.482 56.3718 471.483 56.0637 473.446 55.4862C478.487 53.9844 481.873 50.7115 483.413 45.7058C484.683 41.6627 484.76 37.5041 483.836 33.384C482.528 27.6467 479.064 23.8732 473.446 22.102C470.944 21.3319 468.328 21.0238 465.711 21.0238C458.669 21.0238 451.588 21.0238 444.507 21.0238H443.545H443.584Z" fill="white"/>
<path d="M380.704 68.809V21.5244H353.42C353.189 20.7928 353.189 9.5492 353.42 8.8176H423.919C424.15 9.43368 424.189 19.9457 423.919 21.4089C422.457 21.5244 420.956 21.4089 419.494 21.4859C417.993 21.4859 416.454 21.4859 414.953 21.4859H396.905C396.905 21.9479 396.828 22.333 396.828 22.6795C396.828 33.9616 396.828 45.2437 396.828 56.5258C396.828 60.3764 396.828 64.2654 396.828 68.1159C396.828 68.3855 396.828 68.6165 396.789 68.8475C396.02 69.0401 381.473 69.0401 380.781 68.8475L380.704 68.809Z" fill="white"/>
<path d="M572.46 8.54805C561.416 18.2129 550.564 27.7623 539.558 37.4271C551.026 47.8236 562.455 58.22 573.961 68.6935C573.653 68.6935 573.499 68.732 573.307 68.732C566.188 68.732 559.069 68.732 551.949 68.732C551.449 68.732 551.103 68.578 550.756 68.2314C546.985 64.4964 543.214 60.7614 539.443 57.0649C536.056 53.7149 532.631 50.3649 529.245 47.015C526.243 44.0886 523.28 41.1621 520.279 38.1972C520.086 38.0047 519.894 37.7737 519.624 37.5041C519.855 37.2731 520.086 37.0421 520.317 36.811C527.013 30.6117 533.747 24.3738 540.443 18.1744C543.753 15.094 547.062 12.052 550.333 8.97161C550.718 8.62506 551.103 8.47104 551.603 8.47104C558.222 8.47104 564.879 8.47104 571.537 8.47104C571.768 8.47104 571.999 8.47104 572.422 8.50954L572.46 8.54805Z" fill="white"/>
<path d="M518.932 69.0016H503.231C503.039 68.27 503.077 9.66472 503.231 8.8176H518.778C518.778 8.97162 518.855 9.20265 518.893 9.39518C518.893 9.62621 518.893 9.85724 518.893 10.1268V69.0016H518.932Z" fill="white"/>
<path d="M311.013 34.4237C315.246 30.1111 319.325 25.9525 323.442 21.7554C327.714 25.991 331.87 30.1496 336.141 34.3852C336.218 34.1156 336.295 34.0001 336.295 33.8461C336.295 33.5766 336.295 33.307 336.295 33.0375V9.35665C336.334 9.35665 336.372 9.31815 336.449 9.31815C343.607 21.7554 350.765 34.1541 357.922 46.5914C357.922 46.5914 357.884 46.6684 357.845 46.6684C357.653 46.5914 357.461 46.4759 357.268 46.3604C350.611 42.5483 343.953 38.7363 337.257 34.9628C336.95 34.8087 336.68 34.6547 336.295 34.5777C337.681 40.315 339.297 46.0138 340.798 51.8281C335.102 53.3683 329.446 54.8701 323.673 56.2177C327.829 49.0557 331.947 41.8552 336.18 34.5777C335.872 34.5392 335.68 34.4622 335.487 34.4622C331.716 34.4622 327.983 34.4622 324.212 34.5007C320.017 34.5007 315.823 34.5007 311.667 34.5007C311.513 34.5007 311.359 34.5007 311.013 34.4237Z" fill="white"/>
<path d="M323.365 56.3718C324.02 56.7953 324.712 57.2574 325.366 57.6424C331.831 61.416 338.296 65.151 344.8 68.886C344.954 68.963 345.108 69.0786 345.416 69.2711H301.584C301.854 69.1171 302.008 68.963 302.162 68.886C308.896 64.997 315.592 61.0694 322.326 57.1804C322.711 56.9493 323.019 56.6413 323.365 56.3718Z" fill="white"/>
<path d="M288.808 47.092C296.005 34.5392 303.162 21.9479 310.358 9.39517C310.397 9.39517 310.474 9.39517 310.512 9.43368C310.512 9.66471 310.551 9.89574 310.551 10.0883C310.551 17.9434 310.551 25.76 310.551 33.6151C310.551 34.0771 310.512 34.4622 310.012 34.7317C303.047 38.8133 296.12 42.9334 289.155 47.0535" fill="white"/>
<path d="M345.723 69.0786C344.146 63.3798 342.568 57.7195 340.952 51.9051C346.647 50.3264 352.265 48.7477 357.884 47.169L357.999 47.323C353.959 54.562 349.918 61.801 345.916 69.0786C345.839 69.0786 345.8 69.0786 345.723 69.0786Z" fill="white"/>
<path d="M323.404 56.3718C322.48 56.1407 321.557 55.9482 320.633 55.7172C316.015 54.5235 311.397 53.2913 306.818 52.0592C306.587 51.9822 306.356 51.9052 306.048 51.8281C307.588 46.1293 309.088 40.5075 310.666 34.6547C310.897 35.0013 311.051 35.2323 311.205 35.4633C314.514 41.1236 317.785 46.7839 321.095 52.4827C321.865 53.7919 322.634 55.1011 323.404 56.4103V56.3718Z" fill="white"/>
<path d="M288.847 47.631C294.465 49.0557 300.122 50.4804 305.856 51.9436C304.317 57.681 302.777 63.3798 301.238 69.0401C301.2 69.0401 301.123 69.0401 301.084 69.0401C296.967 61.9166 292.849 54.8316 288.731 47.7081" fill="white"/>
<path d="M335.795 8.89458C331.639 13.0532 327.483 17.2118 323.404 21.2933C319.363 17.2503 315.207 13.0917 311.051 8.93309C311.051 8.93309 311.09 8.89458 311.128 8.89458C319.209 8.89458 327.329 8.89458 335.41 8.85608C335.526 8.85608 335.68 8.85608 335.795 8.89458Z" fill="white"/>
</g>
<defs>
<linearGradient id="paint0_linear_12_102" x1="24.051" y1="5.00556" x2="67.4291" y2="24.2773" gradientUnits="userSpaceOnUse">
<stop stop-color="#383942"/>
<stop offset="0.1" stop-color="#40414A"/>
<stop offset="0.2" stop-color="#818187"/>
<stop offset="0.3" stop-color="#B8B8BB"/>
<stop offset="0.4" stop-color="white"/>
</linearGradient>
<linearGradient id="paint1_linear_12_102" x1="3.6943" y1="44.4738" x2="35.4633" y2="9.18338" gradientUnits="userSpaceOnUse">
<stop stop-color="#4B2A20"/>
<stop offset="0.1" stop-color="#523228"/>
<stop offset="0.2" stop-color="#866F69"/>
<stop offset="0.3" stop-color="#B2A4A0"/>
<stop offset="0.4" stop-color="white"/>
</linearGradient>
<linearGradient id="paint2_linear_12_102" x1="34.9033" y1="76.0867" x2="11.1383" y2="34.9368" gradientUnits="userSpaceOnUse">
<stop stop-color="#2D3F48"/>
<stop offset="0.1" stop-color="#35474F"/>
<stop offset="0.2" stop-color="#768187"/>
<stop offset="0.3" stop-color="#ADB4B7"/>
<stop offset="0.4" stop-color="white"/>
</linearGradient>
<linearGradient id="paint3_linear_12_102" x1="74.5781" y1="56.1407" x2="28.1277" y2="65.9867" gradientUnits="userSpaceOnUse">
<stop stop-color="#48403C"/>
<stop offset="0.1" stop-color="#504844"/>
<stop offset="0.2" stop-color="#8C8785"/>
<stop offset="0.3" stop-color="#C0BDBC"/>
<stop offset="0.4" stop-color="white"/>
</linearGradient>
<linearGradient id="paint4_linear_12_102" x1="67.8822" y1="12.2061" x2="62.9121" y2="59.4516" gradientUnits="userSpaceOnUse">
<stop stop-color="#3B433B"/>
<stop offset="0.1" stop-color="#434B43"/>
<stop offset="0.2" stop-color="#848984"/>
<stop offset="0.3" stop-color="#BBBDBB"/>
<stop offset="0.4" stop-color="white"/>
</linearGradient>
<clipPath id="clip0_12_102">
<rect width="574" height="135" fill="white"/>
</clipPath>
</defs>
</svg>
